<svg width="165" height="47" viewBox="0 0 165 47" fill="none" xmlns="http://www.w3.org/2000/svg">
    <path
        d="M29.1791 14.3328V32.6843C29.1791 33.6968 28.2437 34.5194 27.0924 34.5194C25.941 34.5194 25.0056 33.6968 25.0056 32.6843V26.7359C25.0056 25.7234 24.0701 24.9007 22.9188 24.9007H18.7452C17.5939 24.9007 16.6584 25.7234 16.6584 26.7359V27.4952C16.6584 28.5077 15.723 29.3304 14.5716 29.3304C13.4203 29.3304 12.4849 28.5077 12.4849 27.4952V18.7941C12.4849 17.7816 13.4203 16.959 14.5716 16.959C15.723 16.959 16.6584 17.7816 16.6584 18.7941V19.4269C16.6584 20.4394 17.5939 21.2621 18.7452 21.2621H22.9548C24.1061 21.2621 25.0416 20.4394 25.0416 19.4269V14.3328C25.0416 13.3203 25.977 12.4977 27.1283 12.4977C28.2437 12.5293 29.1791 13.3203 29.1791 14.3328Z"
        fill="white" />
    <path
        d="M25.5092 38.2848C24.8975 38.2848 24.2859 38.5379 23.9261 38.9809C21.8753 41.3223 18.6012 42.841 14.9673 42.841C8.81487 42.841 3.81378 38.5696 3.81378 33.3489V13.1939C3.81378 7.97326 8.85085 3.70181 14.9673 3.70181C18.7091 3.70181 22.0192 5.28383 24.07 7.6885C24.4658 8.13147 25.0414 8.41623 25.689 8.41623H25.9049C27.488 8.41623 28.4594 6.83421 27.56 5.69515C24.8975 2.27799 20.3641 -0.00012207 15.2191 -0.00012207H14.7874C6.65613 -0.00012207 0 5.66351 0 12.5611V33.6969C0 40.5945 6.65613 46.2582 14.7874 46.2582H15.2191C20.1123 46.2582 24.4298 44.2332 27.1282 41.1008C28.0637 39.9617 27.1642 38.2848 25.5092 38.2848Z"
        fill="white" />
    <path
        d="M38.8213 15.4092H44.2901C45.9811 15.4092 47.5642 15.9471 49.0033 16.9912C49.7229 17.5924 50.1907 18.0986 50.4065 18.4467C51.1261 19.5224 51.5219 20.6298 51.5219 21.7689V32.938C51.5219 33.4442 51.234 33.8872 50.6584 34.2669C50.3346 34.4251 50.0108 34.52 49.6869 34.52C48.8954 34.52 48.3197 34.2036 47.9599 33.5391C47.7801 33.0962 47.4562 32.8747 46.9885 32.8747C46.7726 32.8747 46.3769 33.0645 45.7292 33.4126C45.1896 33.6657 44.5419 33.9188 43.8224 34.1087C42.671 34.3934 41.6636 34.5516 40.8001 34.5516H40.5123C38.6054 34.5516 36.9144 33.9188 35.4033 32.6216C34.7556 31.9888 34.3599 31.4509 34.144 31.0395C33.6403 30.0903 33.3884 29.1728 33.3884 28.3185V28.1286C33.3884 26.4833 34.108 24.9962 35.5472 23.6673C37.0583 22.465 38.7133 21.8638 40.4763 21.8638H46.4848C47.0245 21.8638 47.3483 21.7373 47.4922 21.5158C47.6002 21.3892 47.6721 21.2627 47.6721 21.1045V21.0412C47.6361 20.6931 47.3843 20.2502 46.8806 19.7439C46.3409 19.301 45.9091 19.0162 45.5494 18.9213C45.1896 18.7631 44.5419 18.6681 43.6425 18.6681H38.8213C38.3176 18.6681 37.8858 18.4783 37.4541 18.067C37.2022 17.7506 37.0583 17.4658 37.0583 17.181V17.0545C37.0583 16.5166 37.3101 16.1053 37.8498 15.7572C38.2096 15.5041 38.4975 15.4092 38.8213 15.4092ZM37.0583 28.1919C37.0583 29.0462 37.4541 29.8372 38.2816 30.5333C39.0012 31.0395 39.7567 31.2927 40.4403 31.2927H40.8001C41.9874 31.2927 43.2107 30.9763 44.47 30.3118C45.8732 29.5524 46.8446 28.4134 47.4562 26.9579C47.6002 26.515 47.6721 26.1669 47.7441 25.9138V25.8189C47.7441 25.5025 47.5282 25.281 47.1324 25.0911C47.0245 25.0911 46.9525 25.0595 46.9166 25.0595H40.4763C39.6128 25.0595 38.8213 25.3759 38.0297 26.0404C37.3821 26.7048 37.0583 27.4325 37.0583 28.1919Z"
        fill="white" />
    <path
        d="M57.3866 7.65723H57.5305C58.3581 7.65723 59.0057 8.03691 59.5094 8.76464C59.6533 9.01776 59.7253 9.30253 59.7253 9.61893V9.80878C59.7253 10.5049 59.2935 11.106 58.43 11.5174C58.1062 11.6439 57.7824 11.7072 57.4586 11.7072C56.4871 11.7072 55.8035 11.2959 55.3358 10.4416C55.2279 10.2201 55.1919 9.99862 55.1919 9.80878V9.65057C55.1919 8.79628 55.6956 8.19511 56.703 7.81543C56.9549 7.68887 57.1707 7.65723 57.3866 7.65723Z"
        fill="white" />
    <path
        d="M57.2787 15.4092H57.5666C58.0343 15.4092 58.502 15.6307 58.8978 16.042C59.1137 16.3584 59.2216 16.6432 59.2216 16.9279V32.9696C59.2216 33.5391 58.8618 34.0137 58.1422 34.3934C57.8544 34.4884 57.6385 34.52 57.4946 34.52H57.3147C56.7031 34.52 56.2354 34.2352 55.8036 33.6973C55.6237 33.4759 55.5518 33.0962 55.5518 32.5899V17.3392C55.5518 16.485 55.8396 15.9471 56.4153 15.6623C56.7391 15.5041 56.9909 15.4092 57.2787 15.4092Z"
        fill="white" />
    <path
        d="M65.3379 15.4092C65.9495 15.4092 66.4532 15.6623 66.849 16.1369C67.1009 16.485 67.3887 16.6432 67.7485 16.6432C67.8924 16.6432 68.2522 16.5166 68.7559 16.2635C70.0871 15.6939 71.4903 15.4092 72.8935 15.4092C75.6999 15.4092 78.1105 16.3584 80.0893 18.2885C80.8089 19.1111 81.2766 19.7756 81.5285 20.3134C82.1041 21.2943 82.392 22.5916 82.392 24.2052V32.6532C82.392 33.4126 82.1401 33.9188 81.6724 34.1719C81.3486 34.3934 80.9528 34.52 80.5211 34.52C80.0533 34.52 79.6216 34.3302 79.1898 33.9821C78.866 33.6973 78.6861 33.2544 78.6861 32.6216V24.2685C78.6861 23.0662 78.5062 22.1802 78.1464 21.6107C77.4628 20.3451 76.3475 19.4592 74.8004 18.9213C74.1168 18.7314 73.4692 18.6365 72.8935 18.6365C71.2385 18.6365 69.7633 19.206 68.576 20.3451C67.9284 21.0095 67.4607 21.8005 67.2448 22.7181C67.1728 23.0345 67.1009 23.5724 67.1009 24.2685V32.6216C67.1009 33.3809 66.849 33.8872 66.3813 34.1403C66.0575 34.3618 65.6977 34.4884 65.23 34.4884C64.7622 34.4884 64.3305 34.2985 63.8987 33.9505C63.5749 33.6657 63.395 33.2227 63.395 32.5899V17.276C63.395 16.6432 63.5749 16.1685 63.9347 15.8838C64.4384 15.5674 64.8702 15.4092 65.3379 15.4092Z"
        fill="white" />
    <path
        d="M88.4726 7.75183C89.1922 7.75183 89.7319 8.06823 90.1636 8.73268C90.2356 8.98581 90.3076 9.23893 90.3076 9.42877V14.4596C90.3076 14.9342 90.4875 15.219 90.8473 15.3455C90.9912 15.3772 91.0991 15.4088 91.243 15.4088H97.5753C97.6113 15.4088 97.6113 15.4405 97.6113 15.4721V17.7186C97.6113 18.1615 97.4314 18.4463 97.0356 18.5729C96.8917 18.6361 96.7838 18.6361 96.6759 18.6361H92.4663C91.6028 18.6361 91.0271 18.826 90.7393 19.2373C90.4515 19.4588 90.3076 19.9018 90.3076 20.5662V29.3306C90.3076 30.09 90.5234 30.6279 90.9552 30.8493C91.207 31.1341 91.7107 31.2923 92.4303 31.2923H93.4737C93.5097 31.2923 93.5097 31.2923 93.5097 31.3239V34.488C93.5097 34.5196 93.5097 34.5196 93.4737 34.5196H91.315C89.588 34.5196 88.2568 33.8552 87.2493 32.5263C86.8536 31.8935 86.6377 31.1974 86.6377 30.4064V9.42877C86.6377 8.6694 87.0694 8.13152 87.9329 7.81511C88.1128 7.78347 88.2927 7.75183 88.4726 7.75183Z"
        fill="white" />
    <path
        d="M111.463 15.3771C114.486 15.3771 117.112 16.3896 119.415 18.3829C120.242 19.1739 120.638 19.7751 120.638 20.1864C120.638 20.2813 120.638 20.3446 120.674 20.3763C120.674 20.7876 120.458 21.1673 120.062 21.547C119.846 21.7052 116.32 23.92 109.52 28.1598C109.52 28.1598 108.945 28.5395 107.793 29.2672C107.614 29.4571 107.542 29.6153 107.542 29.8051V29.9317C107.542 30.1532 107.685 30.3746 107.973 30.5328C109.125 31.0391 110.204 31.2922 111.211 31.2922H111.643C113.262 31.2922 114.809 30.7543 116.284 29.6785C117.076 28.9825 117.544 28.4446 117.688 28.1598C117.939 27.8118 118.155 27.3688 118.371 26.7676C118.515 26.1665 118.695 25.7235 118.983 25.502C119.415 25.154 119.846 24.9958 120.278 24.9958C121.142 24.9958 121.717 25.3438 122.041 26.0715C122.113 26.2297 122.149 26.3879 122.149 26.5778V26.6411C122.149 27.1157 121.861 27.9067 121.358 29.0141C121.07 29.6153 120.566 30.2797 119.882 31.0707C119.163 31.7668 118.551 32.3047 118.011 32.6527C117.076 33.2223 116.284 33.6336 115.565 33.8551C114.198 34.3297 112.902 34.5828 111.643 34.5828H111.319C109.125 34.5828 107.002 33.9816 104.987 32.7477C104.016 32.0832 103.224 31.3871 102.576 30.5961C102.109 29.9949 101.749 29.4254 101.461 28.9192C100.849 27.5586 100.526 26.293 100.526 25.059C100.526 22.7809 101.389 20.6927 103.116 18.7942C103.908 18.0349 104.519 17.5603 104.879 17.3704C106.93 16.0415 109.089 15.3771 111.463 15.3771ZM104.267 24.9325C104.267 25.8184 104.375 26.3247 104.627 26.4829C104.807 26.6411 105.023 26.7043 105.311 26.7043C105.527 26.7043 105.922 26.4829 106.498 26.0715C106.57 26.0399 109.412 24.268 115.061 20.7243C115.277 20.5345 115.385 20.3446 115.385 20.1231V19.9966C115.385 19.7751 115.241 19.5852 114.953 19.3954C113.802 18.8575 112.723 18.6044 111.715 18.6044H111.283C109.628 18.6044 108.045 19.1739 106.534 20.313C105.023 21.6735 104.267 23.1923 104.267 24.9325Z"
        fill="white" />
    <path
        d="M135.173 15.4092C137.44 15.4092 139.491 15.9787 141.362 17.1178C141.793 17.4658 142.009 17.8771 142.009 18.3834C142.009 18.9529 141.686 19.3959 141.038 19.7439C140.714 19.8705 140.426 19.9338 140.174 19.9338C139.743 19.9338 139.203 19.7439 138.591 19.3959C137.548 18.8896 136.361 18.6365 135.101 18.6365H134.957C133.842 18.6365 132.691 18.9213 131.503 19.4908C129.956 20.3134 128.877 21.4525 128.301 22.9396C128.049 23.6357 127.906 24.3001 127.906 24.9962C127.906 26.7365 128.697 28.2868 130.244 29.6474C131.216 30.3751 132.151 30.8497 133.122 31.0712C133.806 31.2294 134.418 31.3243 134.921 31.3243H135.101C136.541 31.3243 137.908 30.9763 139.167 30.2485C139.491 30.0903 139.815 30.0271 140.138 30.0271C140.714 30.0271 141.218 30.2802 141.65 30.7548C141.865 31.0395 141.937 31.356 141.937 31.6407C141.937 32.3052 141.542 32.8431 140.786 33.1911C139.059 34.1087 137.152 34.5833 135.065 34.5833C132.727 34.5833 130.532 33.9188 128.481 32.5583C128.013 32.2419 127.51 31.7989 126.97 31.261C126.358 30.6282 125.927 30.0903 125.747 29.7423C124.811 28.2552 124.308 26.7048 124.308 25.0279C124.308 22.9712 125.027 21.0412 126.502 19.2693C126.754 18.9529 127.222 18.5099 127.941 17.9088C128.733 17.3392 129.453 16.8646 130.136 16.5799C131.791 15.7572 133.482 15.4092 135.173 15.4092Z"
        fill="white" />
    <path
        d="M147.946 7.75183H148.09C148.738 7.75183 149.241 8.06823 149.673 8.6694C149.781 8.92253 149.853 9.14401 149.853 9.27057V15.6303C149.853 16.01 150.069 16.2631 150.501 16.4213C150.572 16.4213 150.644 16.4529 150.68 16.4529H150.716C150.932 16.4529 151.364 16.2947 152.048 16.01C153.235 15.5987 154.386 15.4088 155.538 15.4088C157.912 15.4088 159.999 16.1365 161.87 17.5604C162.733 18.3197 163.273 18.8893 163.489 19.2373C164.137 20.1232 164.568 21.0408 164.784 22.0217C164.928 22.5279 165 23.3189 165 24.4263V32.6845C165 33.5704 164.64 34.1399 163.885 34.4247C163.633 34.5196 163.381 34.5513 163.237 34.5513H163.093C162.41 34.5513 161.87 34.2349 161.474 33.5704C161.366 33.3806 161.294 33.0642 161.294 32.6845V23.8252C161.294 22.4013 160.755 21.1674 159.639 20.1549C158.452 19.1424 157.085 18.6361 155.502 18.6361C153.847 18.6361 152.407 19.2057 151.184 20.3764C150.249 21.3256 149.781 22.4646 149.781 23.7935V32.9692C149.781 33.4439 149.529 33.8552 148.989 34.2349C148.666 34.4247 148.342 34.5196 148.018 34.5196H147.874C147.262 34.5196 146.759 34.2349 146.363 33.697C146.183 33.4755 146.111 33.0958 146.111 32.5896V9.65026C146.111 8.76432 146.471 8.1948 147.226 7.91003C147.514 7.81511 147.766 7.75183 147.946 7.75183Z"
        fill="white" />
</svg>